<?xml version="1.0" standalone="no"?>
<!DOCTYPE svg PUBLIC "-//W3C//DTD SVG 20010904//EN"
 "http://www.w3.org/TR/2001/REC-SVG-20010904/DTD/svg10.dtd">
<svg version="1.0" xmlns="http://www.w3.org/2000/svg"
 width="960.000000pt" height="960.000000pt" viewBox="0 0 960.000000 960.000000"
 preserveAspectRatio="xMidYMid meet">
<metadata>
Created by potrace 1.11, written by Peter Selinger 2001-2013
</metadata>
<g transform="translate(0.000000,960.000000) scale(0.100000,-0.100000)"
fill="#000000" stroke="none">
<path d="M4560 9193 c-794 -57 -1489 -300 -2160 -754 -768 -520 -1433 -1306
-1910 -2260 -84 -167 -96 -199 -110 -285 -18 -112 19 -263 85 -350 31 -40 31
-46 0 -127 -95 -255 -231 -754 -296 -1092 -68 -353 -139 -892 -139 -1052 0
-295 159 -567 405 -695 99 -51 205 -84 302 -94 l63 -7 0 -426 c0 -521 9 -616
82 -814 123 -339 406 -625 744 -752 202 -76 314 -87 814 -83 375 4 410 6 465
25 173 58 304 172 381 330 72 148 80 283 34 553 -85 510 -129 1047 -110 1366
20 338 54 640 111 988 21 131 39 265 39 299 0 247 -175 472 -439 565 l-76 27
-405 3 c-500 4 -613 -7 -814 -83 -338 -127 -621 -413 -744 -752 -67 -184 -82
-302 -82 -657 l0 -269 -53 7 c-130 16 -286 132 -345 258 -51 106 -58 164 -43
345 50 614 166 1178 368 1786 l55 167 57 0 c130 0 267 56 357 147 43 43 71 90
162 270 170 340 295 545 492 808 139 184 430 525 449 525 3 0 19 -13 34 -30
41 -43 132 -95 222 -126 71 -25 94 -28 210 -28 173 -1 222 17 444 163 202 132
280 177 419 243 276 129 564 214 852 250 134 17 483 16 620 0 429 -54 829
-201 1176 -435 229 -155 248 -166 325 -193 56 -20 99 -28 179 -31 169 -8 285
28 432 134 64 46 77 60 72 77 -12 44 305 -317 452 -514 190 -254 353 -519 518
-840 122 -239 165 -296 264 -348 72 -38 118 -51 212 -60 l74 -7 33 -105 c222
-699 355 -1364 404 -2012 15 -192 8 -245 -46 -354 -67 -137 -199 -234 -341
-250 l-54 -7 0 349 c0 360 -8 475 -41 604 -103 408 -397 733 -789 871 -166 59
-190 62 -688 66 -507 5 -558 1 -661 -47 -186 -88 -303 -227 -351 -416 -29
-112 -26 -216 14 -460 144 -877 143 -1412 -5 -2308 -21 -131 -39 -265 -39
-299 0 -247 175 -472 439 -565 l76 -27 405 -3 c500 -4 613 7 814 83 338 127
621 413 744 752 70 192 82 298 82 734 l0 346 78 7 c310 28 563 247 656 569 34
118 41 214 27 398 -55 715 -203 1441 -424 2084 l-45 131 25 29 c78 93 123 257
104 377 -15 94 -31 132 -133 328 -871 1673 -2233 2732 -3763 2925 -250 31
-564 43 -765 28z"/>
</g>
</svg>
